<?xml version="1.0" encoding="utf-8"?>
<!-- Generator: Adobe Illustrator 16.0.0, SVG Export Plug-In . SVG Version: 6.00 Build 0)  -->
<!DOCTYPE svg PUBLIC "-//W3C//DTD SVG 1.1//EN" "http://www.w3.org/Graphics/SVG/1.1/DTD/svg11.dtd">
<svg version="1.1" id="Layer_1" xmlns="http://www.w3.org/2000/svg" xmlns:xlink="http://www.w3.org/1999/xlink" x="0px" y="0px"
	 width="182px" height="85.897px" viewBox="0 0 182 85.897" enable-background="new 0 0 182 85.897" xml:space="preserve">
<g>
	<g>
		<path fill="#FFFFFF" d="M5.54,75.253v-0.024c0-2.333,1.691-4.469,4.271-4.469c1.297,0,2.148,0.357,2.951,0.963
			c0.073,0.062,0.123,0.148,0.123,0.259c0,0.173-0.148,0.321-0.321,0.321c-0.049,0-0.123-0.024-0.197-0.087
			c-0.667-0.518-1.395-0.876-2.593-0.876c-2.098,0-3.567,1.777-3.567,3.863v0.025c0,2.234,1.396,3.9,3.704,3.9
			c1.099,0,2.123-0.456,2.752-0.987v-2.481h-2.69c-0.161,0-0.297-0.136-0.297-0.296c0-0.161,0.136-0.297,0.297-0.297h2.987
			c0.173,0,0.32,0.148,0.32,0.321v2.827c0,0.123-0.086,0.259-0.222,0.37c-0.814,0.63-1.889,1.111-3.173,1.111
			C7.157,79.698,5.54,77.685,5.54,75.253z"/>
	</g>
	<g>
		<path fill="#FFFFFF" d="M15.603,71.229c0-0.173,0.147-0.32,0.32-0.32h3.309c1.062,0,1.913,0.333,2.432,0.852
			c0.407,0.407,0.654,0.987,0.654,1.604v0.024c0,1.444-1.074,2.271-2.53,2.469l2.456,3.186c0.062,0.074,0.099,0.147,0.099,0.222
			c0,0.173-0.16,0.334-0.333,0.334c-0.123,0-0.21-0.074-0.284-0.173l-2.653-3.457h-2.827v3.309c0,0.173-0.148,0.321-0.321,0.321
			s-0.32-0.148-0.32-0.321V71.229z M19.158,75.389c1.444,0,2.519-0.729,2.519-1.975v-0.025c0-1.16-0.914-1.889-2.481-1.889h-2.95
			v3.889H19.158z"/>
	</g>
	<g>
		<path fill="#FFFFFF" d="M23.986,79.129l3.691-7.999c0.086-0.186,0.21-0.309,0.432-0.309h0.025c0.222,0,0.346,0.123,0.432,0.309
			l3.679,7.975c0.037,0.074,0.05,0.136,0.05,0.197c0,0.161-0.136,0.297-0.309,0.297c-0.148,0-0.26-0.111-0.321-0.247l-1.013-2.223
			h-5.098l-1.013,2.234c-0.062,0.148-0.16,0.235-0.309,0.235c-0.16,0-0.296-0.124-0.296-0.272
			C23.937,79.278,23.95,79.204,23.986,79.129z M30.38,76.549l-2.271-4.999l-2.283,4.999H30.38z"/>
	</g>
	<g>
		<path fill="#FFFFFF" d="M34.284,71.192c0-0.173,0.147-0.32,0.32-0.32h0.099c0.136,0,0.235,0.073,0.321,0.185l5.826,7.395v-7.283
			c0-0.173,0.136-0.309,0.309-0.309s0.309,0.136,0.309,0.309v8.147c0,0.148-0.11,0.271-0.259,0.271h-0.05
			c-0.123,0-0.222-0.087-0.32-0.21l-5.938-7.53v7.444c0,0.173-0.136,0.309-0.309,0.309s-0.309-0.136-0.309-0.309V71.192z"/>
	</g>
	<g>
		<path fill="#FFFFFF" d="M44.038,71.229c0-0.173,0.147-0.32,0.32-0.32h2.556c2.716,0,4.592,1.863,4.592,4.295v0.025
			c0,2.432-1.876,4.32-4.592,4.32h-2.556c-0.173,0-0.32-0.148-0.32-0.321V71.229z M46.914,78.957c2.407,0,3.926-1.642,3.926-3.703
			v-0.024c0-2.05-1.519-3.729-3.926-3.729h-2.234v7.456H46.914z"/>
	</g>
	<g>
		<path fill="#FFFFFF" d="M53.694,79.228v-7.999c0-0.173,0.147-0.32,0.32-0.32h5.58c0.16,0,0.296,0.136,0.296,0.296
			S59.754,71.5,59.594,71.5h-5.259v3.395h4.703c0.16,0,0.296,0.137,0.296,0.297s-0.136,0.296-0.296,0.296h-4.703v3.469h5.32
			c0.16,0,0.296,0.136,0.296,0.297c0,0.16-0.136,0.296-0.296,0.296h-5.642C53.841,79.549,53.694,79.401,53.694,79.228z"/>
	</g>
	<g>
		<path fill="#FFFFFF" d="M61.608,78.463c-0.062-0.05-0.123-0.136-0.123-0.247c0-0.173,0.147-0.321,0.32-0.321
			c0.087,0,0.161,0.037,0.21,0.074c0.864,0.777,1.729,1.123,2.913,1.123c1.297,0,2.186-0.729,2.186-1.716v-0.024
			c0-0.913-0.481-1.444-2.444-1.839c-2.074-0.42-2.913-1.124-2.913-2.433v-0.024c0-1.284,1.173-2.271,2.777-2.271
			c1.16,0,1.963,0.297,2.753,0.889c0.062,0.05,0.136,0.136,0.136,0.26c0,0.173-0.148,0.32-0.321,0.32
			c-0.074,0-0.148-0.024-0.21-0.073c-0.753-0.581-1.506-0.815-2.382-0.815c-1.271,0-2.111,0.729-2.111,1.63v0.024
			c0,0.914,0.469,1.469,2.519,1.889c2,0.407,2.839,1.123,2.839,2.383v0.024c0,1.395-1.197,2.357-2.864,2.357
			C63.595,79.672,62.583,79.265,61.608,78.463z"/>
	</g>
	<g>
		<path fill="#FFFFFF" d="M73.659,71.18c0-0.173,0.148-0.321,0.321-0.321s0.32,0.148,0.32,0.321v8.098
			c0,0.173-0.147,0.321-0.32,0.321s-0.321-0.148-0.321-0.321V71.18z"/>
	</g>
	<g>
		<path fill="#FFFFFF" d="M76.956,71.192c0-0.173,0.147-0.32,0.32-0.32h0.099c0.136,0,0.235,0.073,0.321,0.185l5.826,7.395v-7.283
			c0-0.173,0.136-0.309,0.309-0.309s0.309,0.136,0.309,0.309v8.147c0,0.148-0.11,0.271-0.259,0.271h-0.05
			c-0.123,0-0.222-0.087-0.32-0.21l-5.938-7.53v7.444c0,0.173-0.136,0.309-0.309,0.309s-0.309-0.136-0.309-0.309V71.192z"/>
	</g>
	<g>
		<path fill="#FFFFFF" d="M89.104,71.5h-2.766c-0.16,0-0.296-0.136-0.296-0.296s0.136-0.296,0.296-0.296h6.173
			c0.16,0,0.296,0.136,0.296,0.296S92.671,71.5,92.511,71.5h-2.766v7.777c0,0.173-0.147,0.321-0.32,0.321s-0.321-0.148-0.321-0.321
			V71.5z"/>
	</g>
	<g>
		<path fill="#FFFFFF" d="M94.71,79.228v-7.999c0-0.173,0.147-0.32,0.32-0.32h5.58c0.16,0,0.296,0.136,0.296,0.296
			s-0.136,0.296-0.296,0.296h-5.259v3.395h4.703c0.16,0,0.296,0.137,0.296,0.297s-0.136,0.296-0.296,0.296h-4.703v3.469h5.32
			c0.16,0,0.296,0.136,0.296,0.297c0,0.16-0.136,0.296-0.296,0.296h-5.642C94.858,79.549,94.71,79.401,94.71,79.228z"/>
	</g>
	<g>
		<path fill="#FFFFFF" d="M102.983,71.229c0-0.173,0.147-0.32,0.32-0.32h3.309c1.062,0,1.913,0.333,2.432,0.852
			c0.407,0.407,0.654,0.987,0.654,1.604v0.024c0,1.444-1.074,2.271-2.53,2.469l2.456,3.186c0.062,0.074,0.099,0.147,0.099,0.222
			c0,0.173-0.16,0.334-0.333,0.334c-0.123,0-0.21-0.074-0.284-0.173l-2.653-3.457h-2.827v3.309c0,0.173-0.148,0.321-0.321,0.321
			s-0.32-0.148-0.32-0.321V71.229z M106.538,75.389c1.444,0,2.519-0.729,2.519-1.975v-0.025c0-1.16-0.914-1.889-2.481-1.889h-2.95
			v3.889H106.538z"/>
	</g>
	<g>
		<path fill="#FFFFFF" d="M111.367,79.129l3.691-7.999c0.086-0.186,0.21-0.309,0.432-0.309h0.025c0.222,0,0.346,0.123,0.432,0.309
			l3.679,7.975c0.037,0.074,0.05,0.136,0.05,0.197c0,0.161-0.136,0.297-0.309,0.297c-0.148,0-0.26-0.111-0.321-0.247l-1.013-2.223
			h-5.098l-1.013,2.234c-0.062,0.148-0.16,0.235-0.309,0.235c-0.16,0-0.296-0.124-0.296-0.272
			C111.318,79.278,111.331,79.204,111.367,79.129z M117.761,76.549l-2.271-4.999l-2.283,4.999H117.761z"/>
	</g>
	<g>
		<path fill="#FFFFFF" d="M120.788,75.253v-0.024c0-2.444,1.827-4.469,4.32-4.469c1.432,0,2.333,0.494,3.173,1.21
			c0.062,0.062,0.123,0.147,0.123,0.259c0,0.173-0.16,0.321-0.333,0.321c-0.087,0-0.173-0.037-0.223-0.087
			c-0.716-0.654-1.543-1.123-2.753-1.123c-2.073,0-3.642,1.691-3.642,3.863v0.025c0,2.185,1.593,3.889,3.654,3.889
			c1.173,0,2-0.42,2.814-1.198c0.05-0.049,0.123-0.099,0.223-0.099c0.16,0,0.309,0.148,0.309,0.309c0,0.099-0.05,0.173-0.1,0.223
			c-0.876,0.814-1.826,1.346-3.271,1.346C122.615,79.698,120.788,77.735,120.788,75.253z"/>
	</g>
	<g>
		<path fill="#FFFFFF" d="M129.654,75.253v-0.024c0-2.444,1.827-4.469,4.32-4.469c1.432,0,2.333,0.494,3.173,1.21
			c0.062,0.062,0.123,0.147,0.123,0.259c0,0.173-0.16,0.321-0.333,0.321c-0.087,0-0.173-0.037-0.223-0.087
			c-0.716-0.654-1.543-1.123-2.753-1.123c-2.073,0-3.642,1.691-3.642,3.863v0.025c0,2.185,1.593,3.889,3.654,3.889
			c1.173,0,2-0.42,2.814-1.198c0.05-0.049,0.123-0.099,0.223-0.099c0.16,0,0.309,0.148,0.309,0.309c0,0.099-0.05,0.173-0.1,0.223
			c-0.876,0.814-1.826,1.346-3.271,1.346C131.481,79.698,129.654,77.735,129.654,75.253z"/>
	</g>
	<g>
		<path fill="#FFFFFF" d="M139.234,71.18c0-0.173,0.148-0.321,0.321-0.321s0.32,0.148,0.32,0.321v8.098
			c0,0.173-0.147,0.321-0.32,0.321s-0.321-0.148-0.321-0.321V71.18z"/>
	</g>
	<g>
		<path fill="#FFFFFF" d="M142.149,75.253v-0.024c0-2.358,1.74-4.469,4.357-4.469s4.333,2.086,4.333,4.443v0.025
			c0,2.357-1.741,4.469-4.357,4.469C143.865,79.698,142.149,77.611,142.149,75.253z M150.172,75.253v-0.024
			c0-2.136-1.556-3.889-3.69-3.889c-2.136,0-3.667,1.729-3.667,3.863v0.025c0,2.136,1.556,3.889,3.691,3.889
			S150.172,77.389,150.172,75.253z"/>
	</g>
	<g>
		<path fill="#FFFFFF" d="M153.026,71.192c0-0.173,0.147-0.32,0.32-0.32h0.099c0.136,0,0.235,0.073,0.321,0.185l5.826,7.395v-7.283
			c0-0.173,0.136-0.309,0.309-0.309s0.309,0.136,0.309,0.309v8.147c0,0.148-0.11,0.271-0.259,0.271h-0.05
			c-0.123,0-0.222-0.087-0.32-0.21l-5.938-7.53v7.444c0,0.173-0.136,0.309-0.309,0.309s-0.309-0.136-0.309-0.309V71.192z"/>
	</g>
	<g>
		<path fill="#FFFFFF" d="M162.781,79.228v-7.999c0-0.173,0.147-0.32,0.32-0.32h5.58c0.16,0,0.296,0.136,0.296,0.296
			s-0.136,0.296-0.296,0.296h-5.259v3.395h4.703c0.16,0,0.296,0.137,0.296,0.297s-0.136,0.296-0.296,0.296h-4.703v3.469h5.32
			c0.16,0,0.296,0.136,0.296,0.297c0,0.16-0.136,0.296-0.296,0.296h-5.642C162.928,79.549,162.781,79.401,162.781,79.228z"/>
	</g>
	<g>
		<path fill="#FFFFFF" d="M170.695,78.463c-0.062-0.05-0.123-0.136-0.123-0.247c0-0.173,0.147-0.321,0.32-0.321
			c0.087,0,0.161,0.037,0.21,0.074c0.864,0.777,1.729,1.123,2.913,1.123c1.297,0,2.186-0.729,2.186-1.716v-0.024
			c0-0.913-0.481-1.444-2.444-1.839c-2.074-0.42-2.913-1.124-2.913-2.433v-0.024c0-1.284,1.173-2.271,2.777-2.271
			c1.16,0,1.963,0.297,2.753,0.889c0.062,0.05,0.136,0.136,0.136,0.26c0,0.173-0.148,0.32-0.321,0.32
			c-0.074,0-0.148-0.024-0.21-0.073c-0.753-0.581-1.506-0.815-2.382-0.815c-1.271,0-2.111,0.729-2.111,1.63v0.024
			c0,0.914,0.469,1.469,2.519,1.889c2,0.407,2.839,1.123,2.839,2.383v0.024c0,1.395-1.197,2.357-2.864,2.357
			C172.682,79.672,171.67,79.265,170.695,78.463z"/>
	</g>
</g>
<g>
	<path fill="#FFFFFF" d="M48.644,17.167c-0.038-0.449-0.344-3.237-2.235-6.17c-1.856-2.879-5.646-6.455-13.262-7.144H12.261
		c-0.598,0-1.083,0.484-1.083,1.083v22.07c0,0.598,0.484,1.083,1.083,1.083h17.49c0.516,0.046,3.594,0.232,5.732-1.676
		c1.331-1.187,2.005-2.891,2.005-5.065c0-2.163-0.667-3.908-1.983-5.186c-2.258-2.195-5.595-2.127-5.702-2.121H18.109
		c-0.598,0-1.083,0.484-1.083,1.083v6.036c0,0.598,0.484,1.083,1.083,1.083s1.083-0.484,1.083-1.083v-4.954h10.64
		c0.026-0.002,2.583-0.04,4.175,1.519c0.874,0.854,1.317,2.074,1.317,3.624c0,1.525-0.428,2.684-1.273,3.442
		c-1.558,1.4-4.103,1.143-4.124,1.141c-0.041-0.005-0.082-0.007-0.123-0.007h-16.46V6.019l19.705-0.004
		c12.579,1.145,13.41,10.937,13.438,11.35c0.002,0.034,0.006,0.068,0.012,0.102c1.539,9.619-2.766,14.255-2.946,14.444
		c-0.212,0.218-0.323,0.516-0.305,0.82c0.018,0.304,0.164,0.586,0.4,0.778c4.371,3.53,3.389,11.955,3.374,12.081
		c-1.214,14.223-15.251,13.744-15.898,13.724H7.497V7.355h1.077l-2.159-3.74l-2.16,3.74h1.077v53.039
		c0,0.598,0.484,1.083,1.083,1.083l24.658-0.001c0.013,0,0.116,0.004,0.299,0.004c2.258,0,16.52-0.606,17.804-15.666
		c0.047-0.373,1.031-8.731-3.368-13.262C47.186,30.637,49.975,25.563,48.644,17.167z"/>
	<path fill="#FFFFFF" d="M12.073,32.476l3.74,2.16v-1.077H34.52c0.044,0,0.087-0.002,0.131-0.008
		c0.087-0.011,8.686-1.19,8.686-12.581c0-11.472-10.741-12.018-10.891-12.023H17.92c-0.598,0-1.083,0.484-1.083,1.083
		s0.484,1.083,1.083,1.083l14.483,0c0.358,0.014,8.768,0.445,8.768,9.858c0,9.079-6.049,10.314-6.729,10.424H15.812v-1.077
		L12.073,32.476z"/>
	<path fill="#FFFFFF" d="M12.261,55.629h21.127c0.062,0,0.123-0.005,0.184-0.016c6.244-1.077,9.75-5.142,10.139-11.755
		c0.412-6.988-5.551-10.648-5.805-10.801c-0.512-0.308-1.178-0.142-1.485,0.371s-0.142,1.178,0.371,1.485
		c0.051,0.031,5.093,3.124,4.758,8.817c-0.33,5.617-3.031,8.801-8.256,9.733h-19.95V39.406h16.837c0.039,0,0.081-0.002,0.12-0.006
		c0.026-0.003,2.627-0.266,4.183,1.132c0.808,0.725,1.217,1.823,1.217,3.263c0,1.702-0.416,2.928-1.234,3.645
		c-1.083,0.948-2.609,0.754-2.617,0.754c-0.053-0.008-0.105-0.012-0.159-0.012H19.35v-0.836h1.077l-2.159-3.74l-2.16,3.74h1.077
		v1.919c0,0.598,0.484,1.083,1.083,1.083h13.359c0.476,0.051,2.578,0.177,4.239-1.255c1.327-1.145,2-2.927,2-5.297
		c0-2.088-0.655-3.732-1.948-4.886c-2.139-1.907-5.269-1.716-5.79-1.667H12.261c-0.598,0-1.083,0.484-1.083,1.083v16.223
		C11.179,55.145,11.663,55.629,12.261,55.629z"/>
	<path fill="#FFFFFF" d="M92.519,40.999c-0.286-0.526-0.943-0.72-1.468-0.435c-0.525,0.286-0.72,0.943-0.435,1.468l9.417,17.347
		H88.829L77.362,38.158c-0.189-0.35-0.555-0.568-0.953-0.568h-5.008c-0.598,0-1.083,0.484-1.083,1.083v20.301h-9.744V6.955h1.077
		l-2.159-3.739l-2.16,3.739h1.077v53.102c0,0.598,0.484,1.083,1.083,1.083h11.909c0.598,0,1.083-0.484,1.083-1.083V39.755h3.28
		l11.467,21.221c0.189,0.35,0.555,0.568,0.953,0.568h13.669c0.382,0,0.735-0.201,0.931-0.529c0.195-0.328,0.203-0.735,0.021-1.07
		L92.519,40.999z"/>
	<path fill="#FFFFFF" d="M65.312,56.808c0.598,0,1.083-0.484,1.083-1.083V4.975h14.074c0.046,0,4.683,0.033,9.221,2.112
		c5.916,2.71,8.915,7.509,8.915,14.263c0,5.004-1.418,8.931-4.216,11.668c-4.486,4.391-11.125,4.304-11.187,4.301
		c-0.395-0.009-0.745,0.188-0.946,0.515c-0.201,0.327-0.215,0.736-0.035,1.076l7.312,13.75l-0.951,0.505l3.663,2.288l0.151-4.315
		l-0.95,0.505L84.93,39.394c2.539-0.259,7.286-1.229,10.957-4.811c3.24-3.162,4.883-7.614,4.883-13.232
		c0-18.329-20.097-18.541-20.3-18.541H65.312c-0.598,0-1.083,0.484-1.083,1.083v51.833C64.229,56.323,64.714,56.808,65.312,56.808z"
		/>
	<path fill="#FFFFFF" d="M70.861,32.989l3.707,2.215l0.016-1.054c0.416,0.003,0.827,0.008,1.264,0.008
		c3.457,0,7.425-0.133,9.732-0.655c5.868-1.325,9.371-5.666,9.371-11.612c0-7.036-5.6-12.279-10.691-12.586H71.267
		c-0.598,0-1.083,0.484-1.083,1.083v5.549c0,0.598,0.484,1.083,1.083,1.083h9.628c0.039,0.001,2.98-0.028,4.554,1.52
		c0.656,0.646,0.976,1.477,0.976,2.541c0,4.062-4.895,4.799-5.477,4.872h-8.869v-4.331c0-0.598-0.484-1.083-1.083-1.083
		s-1.083,0.484-1.083,1.083v5.414c0,0.598,0.484,1.083,1.083,1.083h10.015c0.038,0,0.075-0.002,0.112-0.006
		c2.583-0.269,7.466-2.084,7.466-7.031c0-1.655-0.548-3.032-1.631-4.093c-2.23-2.186-5.953-2.141-6.083-2.133h-8.526V11.47
		l11.844-0.002c4.063,0.247,8.592,4.588,8.592,10.423c0,7.009-5.373,8.979-7.683,9.5c-1.896,0.429-5.612,0.637-10.487,0.594
		l0.017-1.1L70.861,32.989z"/>
	<path fill="#FFFFFF" d="M156.372,41.648c-0.525-0.288-1.182-0.096-1.47,0.428l-7.167,13.06l-25.94-47.701
		c-0.223-0.409-0.68-0.626-1.139-0.549c-0.458,0.081-0.814,0.446-0.883,0.906l-7.759,51.788c-0.046,0.312,0.045,0.628,0.25,0.867
		s0.505,0.376,0.82,0.376h11.549c0.528,0,0.979-0.38,1.067-0.9l2.079-12.193l1.061,0.181l-1.5-4.049l-2.757,3.323l1.062,0.181
		l-1.925,11.292h-9.378l7.095-47.351l25.343,46.604c0.189,0.348,0.553,0.565,0.949,0.565c0,0,0.001,0,0.002,0
		c0.395,0,0.759-0.215,0.949-0.562l8.12-14.797C157.088,42.594,156.896,41.936,156.372,41.648z"/>
	<path fill="#FFFFFF" d="M125.228,25.667c-0.219-0.409-0.677-0.635-1.13-0.558c-0.458,0.075-0.816,0.433-0.893,0.89l-4.257,25.544
		l-1.062-0.177l1.515,4.044l2.745-3.334l-1.062-0.177l3.734-22.404l16.906,31.657c0.195,0.365,0.569,0.573,0.956,0.573
		c0.172,0,0.347-0.042,0.509-0.128c0.528-0.282,0.727-0.938,0.445-1.465L125.228,25.667z"/>
	<path fill="#FFFFFF" d="M158.727,24.206c-0.457-0.069-0.912,0.155-1.127,0.565l-9.868,18.75L128.416,6.788l0.953-0.501
		l-3.652-2.305l-0.17,4.315l0.953-0.501l20.274,38.553c0.188,0.356,0.556,0.579,0.958,0.579c0.402,0,0.771-0.223,0.958-0.578
		l9.342-17.749l5.415,31.503c0.09,0.527,0.548,0.899,1.065,0.899c0.061,0,0.123-0.005,0.185-0.016
		c0.589-0.101,0.985-0.661,0.883-1.25l-5.955-34.646C159.546,24.634,159.185,24.278,158.727,24.206z"/>
	<path fill="#FFFFFF" d="M168.289,3.813c-0.083-0.526-0.537-0.914-1.069-0.914h-4.331c-0.4,0-0.768,0.221-0.956,0.574
		l-15.158,28.511c-0.281,0.528-0.08,1.184,0.448,1.464c0.529,0.28,1.184,0.08,1.464-0.448l14.852-27.937h2.755l8.5,53.954h-4.122
		L164.534,19.6l1.064-0.166l-2.709-3.363l-1.559,4.027l1.064-0.166l6.282,40.334c0.082,0.527,0.536,0.916,1.07,0.916h6.315
		c0.316,0,0.617-0.138,0.823-0.379c0.206-0.241,0.296-0.56,0.247-0.872L168.289,3.813z"/>
</g>
</svg>
